<svg width="645" height="107" xmlns="http://www.w3.org/2000/svg" xmlns:xlink="http://www.w3.org/1999/xlink" xml:space="preserve" overflow="hidden"><g transform="translate(-173 265)"><path d="M184.128-243.47C188.965-243.497 193.789-243.483 198.613-243.483L192.017-205.516C196.974-212.313 201.945-219.096 206.916-225.879 211.767-225.919 216.631-225.933 221.482-225.813 224.333-218.643 227.319-211.513 230.277-204.384 232.569-217.417 234.808-230.464 237.127-243.483 241.951-243.483 246.762-243.497 251.573-243.47 247.881-222.148 244.15-200.839 240.458-179.517 235.621-179.517 230.783-179.517 225.933-179.503 221.402-190.617 216.777-201.692 212.286-212.806 203.997-201.732 195.748-190.617 187.486-179.517L173-179.517 173-180.05C176.851-201.172 180.383-222.334 184.128-243.47ZM251.506-187.512C242.964-199.206 248.726-217.63 261.337-223.644 261.718-223.827 271.662-228.143 279.942-224.824 289.419-221.026 295.25-209.437 291.939-198.92 281.117-198.893 270.283-198.96 259.462-198.893 263.673-185.793 280.531-188.272 290.166-193.269 289.62-190.458 289.127-187.632 288.647-184.807 277.639-177.624 260.635-177.024 251.506-187.512M261.354-208.488C268.204-208.368 275.067-208.355 281.917-208.502 278.812-218.083 264.699-217.617 261.354-208.488Z" fill="#FFFFFF"/><path d="M305.691-243.457C317.072-242.964 328.666-244.51 339.887-242.591 354.013-238.246 352.96-215.311 338.221-212.686 352.694-207.649 352.014-184.421 337.155-180.409 323.122-178.424 308.743-180.036 294.564-179.517 298.282-200.826 302.013-222.135 305.691-243.457M318.245-232.343C317.379-227.398 316.526-222.454 315.646-217.51 322.429-217.83 334.463-214.978 335.396-224.8 335.303-233.795 324.455-232.596 318.245-232.343M313.687-206.143C312.781-201.145 311.915-196.148 311.062-191.151 319.827-190.975 319.639-190.891 324.151-190.955 328.176-191.011 331.869-191.726 334.034-194.589 335.044-195.925 336.495-198.461 334.763-201.972 333.554-204.425 331.212-205.543 328.416-206.014 326.609-206.316 325.585-206.139 324.292-206.137 320.252-206.132 319.674-206.151 313.687-206.143ZM456.32-243.43 470.793-243.43C468.967-233.009 467.168-222.574 465.329-212.153 470.38-216.764 475.497-221.295 480.574-225.879L498.125-225.879C491.022-219.176 483.866-212.526 476.763-205.836 481.88-197.081 486.931-188.285 492.048-179.517L477.443-179.517C472.858-187.273 468.274-195.002 463.69-202.745 462.344-195.002 460.971-187.259 459.652-179.517L445.619-179.517C448.404-200.945 452.882-222.108 456.32-243.43ZM521.273-243.483C523.446-243.483 525.618-243.483 527.803-243.47 526.511-235.927 522.673-227.425 514.077-226.439 514.064-228.878 514.064-231.303 514.09-233.729 518.821-234.635 520.82-239.139 521.273-243.483ZM530.055-243.483 535.08-243.483 535.08-227.145C536.052-227.145 537.985-227.159 538.958-227.159 538.944-232.596 538.944-238.046 538.958-243.483L545.088-243.483C545.088-237.98 545.088-232.476 545.101-226.972L549.09-227.035C549.223-234.079 549.245-238.246 549.312-243.483L554.76-243.483C554.656-233.884 554.747-236.021 554.721-228.656 554.715-226.703 553.637-225.228 552.893-224.425 552.489-223.912 551.985-223.626 551.42-223.329 550.366-222.817 548.549-222.099 547.303-222.116 543.944-222.16 538.302-222.044 530.055-222.135Z" fill="#FFFFFF"/><path d="M560.12-243.483 566.557-243.483C566.57-242.697 566.583-241.138 566.583-240.352 570.221-240.338 573.873-240.338 577.524-240.338 577.538-238.539 577.564-236.754 577.564-234.955 573.633-223.587 575.698-208.302 569.222-196.574 571.487-193.283 574.326-190.431 577.538-188.032 577.551-185.207 577.551-182.368 577.551-179.53 573.38-183.115 569.195-186.699 565.677-190.924 561.186-184.994 554.923-179.397 547.047-179.357 547.02-187.472 547.033-195.588 547.033-203.691 543.648-203.704 540.25-203.704 536.879-203.717 536.825-193.603 536.868-201.091 536.879-190.667 536.884-185.134 533.77-181.909 528.043-179.41 528.03-182.089 528.016-184.78 528.043-187.459 529.44-189.144 530.231-189.555 530.229-191.71 530.217-206.641 530.259-194.049 530.175-208.995L553.777-208.995C553.79-201.798 553.71-194.589 553.83-187.392 557.121-189.725 559.88-192.696 562.066-196.095 559.174-203.264 557.175-210.78 556.202-218.456 558.307-219.562 560.373-220.709 562.439-221.908 563.052-215.991 563.638-210.007 565.504-204.33 568.249-214.205 569.249-224.467 569.622-234.675 563.025-234.368 564.091-223.027 556.255-222.241 556.229-224.333 556.229-226.426 556.255-228.518 560.227-232.476 560.213-238.273 560.12-243.483ZM593.569-224.213C603.617-228.118 612.786-234.595 619.036-243.47 622.594-243.483 626.152-243.497 629.711-243.47 636.52-234.395 646.315-227.665 657.083-224.2 657.096-221.601 657.096-219.016 657.096-216.417 644.596-220.096 633.509-227.492 624.007-236.261 615.718-227.252 605.363-219.962 593.556-216.417 593.556-219.016 593.556-221.615 593.569-224.213ZM679.805-243.47C682.657-243.457 685.508-243.457 688.374-243.457 688.094-242.391 687.827-241.325 687.561-240.258 690.399-240.272 693.264-240.272 696.13-240.285 696.116-238.1 696.116-235.927 696.116-233.755 692.372-233.755 688.627-233.768 684.882-233.742 681.977-229.677 678.112-226.292 673.168-225 673.102-227.718 673.088-230.424 673.115-233.129 677.499-234.741 679.458-239.099 679.805-243.47ZM699.075-243.483 736.922-243.483C736.362-234.915 738.108-225.999 735.882-217.67 730.045-207.875 716.799-213.446 707.55-211.966 707.59-204.064 707.457-196.175 707.644-188.272 710.202-188.645 712.468-189.911 714.653-191.217 715.839-189.458 717.026-187.699 718.225-185.927 713.321-182.315 704.765-176.065 699.568-182.102 698.395-202.478 699.408-223.041 699.075-243.483M707.55-237.473 707.55-231.303C714.64-231.29 721.743-231.29 728.846-231.29 728.833-233.355 728.833-235.421 728.833-237.487 721.73-237.487 714.64-237.487 707.55-237.473M707.55-224.8C707.537-222.681 707.537-220.562 707.55-218.443 714.387-220.149 729.059-213.712 729.006-224.786 721.85-224.813 714.693-224.786 707.55-224.8ZM765.96-243.457C768.959-243.47 771.97-243.457 774.969-243.443 772.157-233.009 764.041-223.707 752.954-222.081 752.927-224.866 752.927-227.638 752.94-230.424 759.763-231.356 764.228-237.18 765.96-243.457ZM779.553-240.498 813.802-240.498C813.789-238.299 813.789-236.114 813.802-233.915 802.381-233.928 790.961-233.928 779.553-233.915 779.54-236.114 779.54-238.299 779.553-240.498ZM522.166-227.812C524.312-227.812 526.457-227.785 528.616-227.772 526.83-221.679 526.723-221.138 525.543-216.737 525.351-216.018 525.402-215.473 525.377-214.99 525.329-214.079 525.347-213.386 525.342-212.14 525.289-201.039 525.191-210.847 525.325-179.543L518.048-179.543C518.062-190.351 518.022-201.159 518.062-211.966 516.782-211.473 515.503-210.994 514.224-210.514 514.104-213.019 514.05-215.525 514.05-218.017 518.302-219.696 521.18-223.414 522.166-227.812ZM359.397-221.948C370.591-224.667 387.343-230.863 395.232-219.096 399.11-206.103 392.633-192.63 391.554-179.517 380.533-180.329 368.939-177.771 358.291-181.022 349.47-184.951 350.435-196.081 356.558-201.725 359.594-204.524 365.614-206.215 366.974-206.447 373.318-207.53 381.63-206.561 381.599-213.486 374.203-217.79 364.408-212.526 357.052-209.474 357.838-213.632 358.624-217.79 359.397-221.948M378.747-188.898C379.387-192.523 380.013-196.161 380.653-199.786 367.073-201.572 361.529-185.22 378.747-188.898ZM405.693-225.879C418.247-223.987 438.729-231.889 444.206-215.924 444.686-203.704 440.555-191.657 439.116-179.517L424.657-179.517C423.937-191.177 439.809-218.097 418.14-214.285 416.168-202.691 414.062-191.111 412.103-179.517L397.657-179.517C400.323-194.975 403.014-210.421 405.693-225.879ZM765.947-225.973C768.919-225.999 771.89-225.999 774.876-225.973 773.423-221.615 771.397-217.43 768.372-213.939 768.266-202.465 768.346-190.991 768.332-179.517L759.91-179.517C759.923-189.045 759.87-198.573 759.937-208.088 757.658-207.129 755.326-206.316 752.967-205.61 752.927-208.422 752.927-211.233 752.94-214.045 758.777-215.871 764.361-219.749 765.947-225.973ZM675.58-225.16C682.124-225.186 688.68-225.186 695.223-225.16 695.223-223.267 695.223-221.362 695.237-219.469 693.211-219.469 691.185-219.469 689.187-219.456 689.173-216.724 689.173-213.992 689.173-211.26 691.479-211.26 693.811-211.26 696.13-211.273 696.116-209.368 696.116-207.449 696.116-205.543 693.797-205.556 691.492-205.556 689.173-205.556 689.181-197.872 689.215-198.571 689.173-187.371 689.22-186.385 689.91-185.106 691.111-185.114 693.75-185.131 693.873-185.16 695.65-185.114 695.637-183.248 695.587-180.954 695.601-179.089 691.603-179.109 689.584-179.093 686.172-179.09 681.805-179.087 680.208-183.268 680.218-190.172 680.23-198.656 680.227-198.649 680.218-205.543 677.846-205.556 675.474-205.556 673.115-205.556 673.102-207.462 673.102-209.354 673.102-211.26 675.474-211.26 677.832-211.273 680.218-211.273 680.205-214.005 680.205-216.737 680.205-219.456 678.659-219.469 677.113-219.469 675.567-219.469 675.567-221.362 675.567-223.267 675.58-225.16ZM776.741-223.707C790.014-223.694 803.288-223.72 816.561-223.694 816.561-221.508 816.561-219.309 816.574-217.124 813.109-217.137 809.658-217.137 806.219-217.124 806.166-210.594 806.241-210.651 806.219-193.635 806.21-186.288 805.65-179.141 797.63-179.134 794.927-179.131 791.598-179.131 787.195-179.134 787.181-181.266 787.136-183.794 787.149-185.913 790.27-185.885 791.077-185.873 792.461-185.913 796.615-186.036 797.077-189.662 797.012-193.812 796.874-202.685 797.008-203.679 796.958-217.124 790.214-217.137 783.484-217.124 776.741-217.124 776.741-219.323 776.728-221.521 776.741-223.707Z" fill="#FFFFFF"/><path d="M605.923-220.868C609.001-220.842 612.093-220.842 615.198-220.842 614.479-211.34 615.531-199.919 625.06-195.002 623.101-193.576 621.115-192.203 619.063-190.924 616.011-193.376 613.532-196.428 611.427-199.719 608.255-191.004 601.818-183.728 593.583-179.477 593.556-182.142 593.556-184.82 593.569-187.486 605.923-193.683 606.696-208.808 605.923-220.868Z" fill="#FFFFFF"/><path d="M633.189-220.842 642.771-220.842C641.291-208.288 644.116-193.403 657.083-187.992 657.096-185.167 657.096-182.355 657.11-179.53 649.394-183.474 642.477-189.218 638.253-196.881 634.042-189.005 626.672-183.501 618.863-179.517 618.836-182.355 618.836-185.194 618.85-188.032 632.003-193.429 635.015-208.115 633.189-220.842ZM530.149-218.11C538.078-218.11 546.007-218.097 553.936-218.123 553.91-216.338 553.896-214.538 553.896-212.753 545.967-212.726 538.051-212.739 530.135-212.739 530.135-214.525 530.135-216.324 530.149-218.11ZM729.246-208.142C732.071-208.781 734.67-210.074 737.015-211.78 735.576-204.677 731.791-198.347 727.127-192.896 729.939-190.311 733.364-188.605 736.895-187.206 736.909-184.634 736.909-182.062 736.922-179.49 723.742-183.714 713.467-194.975 710.442-208.475 712.828-208.488 715.2-208.502 717.585-208.502 718.838-204.863 720.624-201.452 722.703-198.227 725.287-201.247 727.485-204.578 729.246-208.142Z" fill="#FFFFFF"/></g></svg>